HIERARCHY
ROOT Hips
{
	OFFSET	0.00	0.00	0.00
	CHANNELS 6 Xposition Yposition Zposition Zrotation Xrotation Yrotation
	JOINT LeftUpLeg
	{
		OFFSET	 0.126116	-0.065224	 0.014019
		CHANNELS 3 Zrotation Xrotation Yrotation
		JOINT LeftLeg
		{
			OFFSET	 0.000000	 0.569914	 0.000000
			CHANNELS 3 Zrotation Xrotation Yrotation
			JOINT LeftFoot
			{
				OFFSET	 0.000000	 0.544423	 0.000000
				CHANNELS 3 Zrotation Xrotation Yrotation
				JOINT LeftToeBase
				{
					OFFSET	 0.000000	 0.207117	 0.000000
					CHANNELS 3 Zrotation Xrotation Yrotation
					End Site
					{
						OFFSET	 0.000000	 0.207117	 0.000000
					}
				}
			}
		}
	}
	JOINT RightUpLeg
	{
		OFFSET	-0.124023	-0.065224	 0.008373
		CHANNELS 3 Zrotation Xrotation Yrotation
		JOINT RightLeg
		{
			OFFSET	 0.000000	 0.570047	 0.000000
			CHANNELS 3 Zrotation Xrotation Yrotation
			JOINT RightFoot
			{
				OFFSET	 0.000000	 0.544354	 0.000000
				CHANNELS 3 Zrotation Xrotation Yrotation
				JOINT RightToeBase
				{
					OFFSET	 0.000000	 0.207540	 0.000000
					CHANNELS 3 Zrotation Xrotation Yrotation
					End Site
					{
						OFFSET	 0.000000	 0.207540	 0.000000
					}
				}
			}
		}
	}
	JOINT Spine
	{
		OFFSET	 0.000184	 0.117403	 0.007763
		CHANNELS 3 Zrotation Xrotation Yrotation
		JOINT Spine1
		{
			OFFSET	 0.000000	 0.137269	 0.000000
			CHANNELS 3 Zrotation Xrotation Yrotation
			JOINT Spine2
			{
				OFFSET	 0.000000	 0.156879	 0.000000
				CHANNELS 3 Zrotation Xrotation Yrotation
				JOINT LeftShoulder
				{
					OFFSET	 0.080501	 0.160143	 0.002496
					CHANNELS 3 Zrotation Xrotation Yrotation
					JOINT LeftArm
					{
						OFFSET	 0.000000	 0.164363	 0.000000
						CHANNELS 3 Zrotation Xrotation Yrotation
						JOINT LeftForeArm
						{
							OFFSET	 0.000000	 0.364576	 0.000000
							CHANNELS 3 Zrotation Xrotation Yrotation
							JOINT LeftHand
							{
								OFFSET	 0.000000	 0.360812	 0.000000
								CHANNELS 3 Zrotation Xrotation Yrotation
								JOINT LeftHandIndex1
								{
									OFFSET	 0.000000	 0.086006	 0.000000
									CHANNELS 3 Zrotation Xrotation Yrotation
									JOINT LeftHandIndex2
									{
										OFFSET	 0.000000	 0.047237	 0.000000
										CHANNELS 3 Zrotation Xrotation Yrotation
										JOINT LeftHandIndex3
										{
											OFFSET	-0.004284	 0.038165	 0.000551
											CHANNELS 3 Zrotation Xrotation Yrotation
											End Site
											{
												OFFSET	-0.004284	 0.038165	 0.000551
											}
										}
									}
								}
							}
						}
					}
				}
				JOINT Neck
				{
					OFFSET	 0.000000	 0.176489	 0.000000
					CHANNELS 3 Zrotation Xrotation Yrotation
					JOINT Head
					{
						OFFSET	 0.000000	 0.077941	 0.001747
						CHANNELS 3 Zrotation Xrotation Yrotation
						End Site
						{
							OFFSET	 0.000000	 0.077941	 0.001747
						}
					}
				}
				JOINT RightShoulder
				{
					OFFSET	-0.080363	 0.159706	-0.000306
					CHANNELS 3 Zrotation Xrotation Yrotation
					JOINT RightArm
					{
						OFFSET	 0.000000	 0.164196	 0.000000
						CHANNELS 3 Zrotation Xrotation Yrotation
						JOINT RightForeArm
						{
							OFFSET	 0.000000	 0.365611	 0.000000
							CHANNELS 3 Zrotation Xrotation Yrotation
							JOINT RightHand
							{
								OFFSET	 0.000000	 0.360648	 0.000000
								CHANNELS 3 Zrotation Xrotation Yrotation
								JOINT RightHandIndex1
								{
									OFFSET	 0.000000	 0.069977	 0.000000
									CHANNELS 3 Zrotation Xrotation Yrotation
									JOINT RightHandIndex2
									{
										OFFSET	 0.000000	 0.052305	 0.000000
										CHANNELS 3 Zrotation Xrotation Yrotation
										JOINT RightHandIndex3
										{
											OFFSET	 0.009002	 0.042196	 0.000782
											CHANNELS 3 Zrotation Xrotation Yrotation
											End Site
											{
												OFFSET	 0.009002	 0.042196	 0.000782
											}
										}
									}
								}
							}
						}
					}
				}
			}
		}
	}
}
MOTION
Frames:    5
Frame Time: 0.03333334
 0.001687	 1.271235	 0.063399	-0.109084	-0.006683	-179.996200	-177.089200	 1.143482	-10.273640	 2.227783	-10.397580	-0.054727	-5.292765	 70.018270	 4.694217	 1.292262	 28.425850	-2.713146	 176.867400	 1.867593	 10.299710	-2.376716	-11.404000	 0.028901	 5.463868	 70.404880	-4.857014	-1.288183	 28.361890	 2.710176	-0.091403	 2.726352	 2.530008	-0.610328	 3.648448	 1.336428	 0.548487	-4.650076	-3.850032	-101.478000	 1.740666	 90.353380	 3.203078	 65.443800	 0.049526	 2.207808	 4.608681	 1.366209	 12.475610	 3.729171	 7.775324	-6.580301	 5.266122	 0.000000	 0.000000	 0.000000	 0.000000	 0.000000	 0.000000	 0.000000	 0.089846	-3.783161	 0.005928	 0.010133	 1.228935	-0.944821	 101.796200	-0.213317	-89.955440	-5.886223	 64.191480	-2.889671	-4.550779	 6.940311	 1.557766	-14.230730	-2.695496	 11.236310	 15.208500	 5.323790	 0.000000	 0.000000	 0.000000	 0.000000	 0.000000	 0.000000	 0.000000
 0.001715	 1.271194	 0.063437	-0.109239	-0.026395	-179.993600	-177.088600	 1.192797	-10.271930	 2.239295	-10.450100	-0.052647	-5.306077	 70.041520	 4.701214	 1.292262	 28.425850	-2.713146	 176.867900	 1.921136	 10.303470	-2.390210	-11.467010	 0.026224	 5.478219	 70.434430	-4.865621	-1.288183	 28.361890	 2.710176	-0.090860	 2.740591	 2.525252	-0.615869	 3.527791	 1.330362	 0.553740	-4.496918	-3.843184	-101.478000	 1.740681	 90.353410	 3.339877	 65.455100	-0.080160	 2.203107	 4.599107	 1.366643	 12.324380	 3.721765	 7.778615	-6.580301	 5.266122	 0.000000	 0.000000	 0.000000	 0.000000	 0.000000	 0.000000	 0.000000	 0.089846	-3.783161	 0.005928	 0.010271	 1.247031	-0.943749	 101.796200	-0.213312	-89.955460	-7.911411	 65.558400	-1.052021	-2.802235	 4.289387	 1.384338	-14.947570	-1.368454	 11.533480	 15.208500	 5.323790	 0.000000	 0.000000	 0.000000	 0.000000	 0.000000	 0.000000	 0.000000
 0.001721	 1.271193	 0.063481	-0.100761	-0.051316	-179.994400	-177.079700	 1.237069	-10.273950	 2.246240	-10.481780	-0.051381	-5.313336	 70.053970	 4.705020	 1.292262	 28.425850	-2.713146	 176.875600	 1.955011	 10.304030	-2.392427	-11.477360	 0.025781	 5.480184	 70.435860	-4.866429	-1.288183	 28.361890	 2.710176	-0.082282	 2.753546	 2.510879	-0.612457	 3.391879	 1.320098	 0.553866	-4.325008	-3.818780	-101.478000	 1.740654	 90.353380	 3.493009	 65.474210	-0.226001	 2.198178	 4.588696	 1.367046	 12.151230	 3.698669	 7.746645	-6.580301	 5.266122	 0.000000	 0.000000	 0.000000	 0.000000	 0.000000	 0.000000	 0.000000	 0.089846	-3.783161	 0.005928	 0.010381	 1.267595	-0.938379	 101.796200	-0.213325	-89.955440	-7.986732	 65.574400	-0.979626	-2.794044	 4.276881	 1.374700	-14.912020	-1.338717	 11.390510	 15.208500	 5.323790	 0.000000	 0.000000	 0.000000	 0.000000	 0.000000	 0.000000	 0.000000
 0.001721	 1.271204	 0.063540	-0.087249	-0.084598	-179.995300	-177.065800	 1.292506	-10.276640	 2.253926	-10.516830	-0.049982	-5.321081	 70.066990	 4.709139	 1.292262	 28.425850	-2.713146	 176.887700	 1.992534	 10.304870	-2.392087	-11.475770	 0.025848	 5.479527	 70.429880	-4.865497	-1.288183	 28.361890	 2.710176	-0.069391	 2.768728	 2.474946	-0.602931	 3.218011	 1.298001	 0.549651	-4.105960	-3.761322	-101.478000	 1.740675	 90.353390	 3.687985	 65.501610	-0.412518	 2.191530	 4.575144	 1.367482	 11.925510	 3.648122	 7.647480	-6.580301	 5.266122	 0.000000	 0.000000	 0.000000	 0.000000	 0.000000	 0.000000	 0.000000	 0.089846	-3.783161	 0.005928	 0.010449	 1.294270	-0.925030	 101.796200	-0.213305	-89.955470	-8.004683	 65.592160	-0.958425	-2.781590	 4.257939	 1.352976	-14.999800	-1.294107	 11.058920	 15.208500	 5.323790	 0.000000	 0.000000	 0.000000	 0.000000	 0.000000	 0.000000	 0.000000
 0.001719	 1.271214	 0.063579	-0.077438	-0.106968	-179.996100	-177.055700	 1.329186	-10.278570	 2.258845	-10.539250	-0.049083	-5.325949	 70.075200	 4.711715	 1.292262	 28.425850	-2.713146	 176.896500	 2.015975	 10.305280	-2.391093	-11.471130	 0.026048	 5.478263	 70.424000	-4.864323	-1.288183	 28.361890	 2.710176	-0.060584	 2.780028	 2.438950	-0.593869	 3.098556	 1.277133	 0.544213	-3.956739	-3.704727	-101.478000	 1.740678	 90.353400	 3.820233	 65.521720	-0.539774	 2.187166	 4.565865	 1.367928	 11.768370	 3.599960	 7.541465	-6.580301	 5.266122	 0.000000	 0.000000	 0.000000	 0.000000	 0.000000	 0.000000	 0.000000	 0.089846	-3.783161	 0.005928	 0.010444	 1.312727	-0.911622	 101.796200	-0.213307	-89.955470	-7.962411	 65.602840	-0.994863	-2.772012	 4.243489	 1.331395	-15.149540	-1.259786	 10.735150	 15.208500	 5.323790	 0.000000	 0.000000	 0.000000	 0.000000	 0.000000	 0.000000	 0.000000
